<svg width="180" height="166" viewBox="0 0 180 166" fill="none" xmlns="http://www.w3.org/2000/svg">
<path d="M78.2407 42.1598C80.5177 38.5917 79.5581 33.5682 76.3586 30.6363C59.0197 14.7473 51.0065 0.915632 45.9646 0.0305308C39.6105 -1.08492 52.4453 28.7389 45.9646 29.707C33.4308 31.5792 22.0022 37.3254 13.6262 45.9666C5.25023 54.6078 0.445061 65.6093 0.0294139 77.0965C-0.386233 88.5837 3.6134 99.8461 11.3468 108.964C19.0802 118.083 30.0689 124.493 42.4405 127.103C54.8122 129.713 67.8012 128.361 79.1946 123.277C90.588 118.194 99.6807 109.694 104.924 99.2247C107.327 94.4251 118.751 92.1986 130.103 90.125C146.979 87.0423 142.535 80.4172 125.384 81.775L97.037 84.0192C87.6434 84.7629 81.2941 90.1475 75.7428 97.0437C74.3197 98.8115 72.5991 100.457 70.5041 101.713C64.4474 104.415 54.8575 105.829 48.2808 104.441C41.7041 103.054 35.8625 99.6461 31.7514 94.7988C27.6404 89.9515 25.5142 83.9645 25.7351 77.8579C25.9561 71.7513 28.5105 65.903 32.9632 61.3093C37.924 56.1914 54.6755 48.5203 66.077 47.5766C70.6119 47.2013 75.9638 45.7279 78.2407 42.1598Z" fill="url(#paint0_linear_7_51)"/>
<path d="M101.759 121.765C99.4823 125.333 100.442 130.356 103.641 133.288C120.98 149.177 132.518 165.086 137.559 165.971C143.913 167.087 127.555 135.185 134.035 134.217C146.569 132.345 157.998 126.599 166.374 117.958C174.75 109.316 179.555 98.315 179.971 86.8277C180.386 75.3405 176.387 64.0782 168.653 54.9599C160.92 45.8416 149.931 39.4314 137.559 36.8215C125.188 34.2116 112.199 35.5636 100.805 40.647C89.412 45.7304 80.3192 54.2307 75.0764 64.6996C72.6728 69.4992 61.2485 71.7256 49.8968 73.7993C33.021 76.882 37.4649 83.5071 54.6157 82.1493L82.963 79.9051C92.3566 79.1614 98.7059 73.7768 104.257 66.8806C105.68 65.1128 107.401 63.4676 109.496 62.2118C115.553 59.5094 125.142 58.0957 131.719 59.4831C138.296 60.8706 144.137 64.2782 148.249 69.1255C152.36 73.9728 154.486 79.9598 154.265 86.0664C154.044 92.173 151.489 98.0213 147.037 102.615C142.076 107.733 125.324 115.404 113.923 116.348C109.388 116.723 104.036 118.196 101.759 121.765Z" fill="url(#paint1_linear_7_51)"/>
<defs>
<linearGradient id="paint0_linear_7_51" x1="4.17081e-06" y1="-33.3682" x2="170.96" y2="203.808" gradientUnits="userSpaceOnUse">
<stop stop-color="#FF0F00"/>
<stop offset="1" stop-color="#F3DD8B"/>
</linearGradient>
<linearGradient id="paint1_linear_7_51" x1="4.17081e-06" y1="-33.3682" x2="170.96" y2="203.808" gradientUnits="userSpaceOnUse">
<stop stop-color="#FF0F00"/>
<stop offset="1" stop-color="#F3DD8B"/>
</linearGradient>
</defs>
</svg>
