<svg width="689" height="155" viewBox="0 0 689 155" fill="none" xmlns="http://www.w3.org/2000/svg">
<g filter="url(#filter0_d_11_2)">
<path d="M448.637 61.5585C479.501 52.3007 682.501 10.7354 682.501 10.7354C682.501 10.7354 458.8 40.2843 457.569 35.2254C455.187 25.4416 449.494 16.7867 441.458 10.7354C433.422 4.68416 423.54 1.61096 413.498 2.03944C403.455 2.46792 393.873 6.3716 386.383 13.0853C378.893 19.799 373.959 28.9074 372.422 38.8584C370.885 48.8094 372.84 58.9874 377.953 67.6582C383.067 76.329 391.023 82.9561 400.466 86.4103C404.795 87.994 407.419 96.8775 409.906 105.714C413.602 118.85 419.114 114.901 416.906 101.433L413.255 79.1744C412.045 71.7984 406.97 67.1344 400.625 63.201C398.998 62.1926 397.461 60.941 396.24 59.3677C393.522 54.7583 391.716 47.2713 392.533 41.9814C393.35 36.6914 395.973 31.8494 399.955 28.2804C403.937 24.7115 409.031 22.6363 414.369 22.4085C419.708 22.1807 424.961 23.8144 429.233 27.0312C433.992 30.6152 441.683 43.3508 443.187 52.3007C443.785 55.8606 445.389 59.9938 448.637 61.5585Z" fill="url(#paint0_linear_11_2)"/>
<path d="M376.5 86.4103C339.714 68.6878 6.35253 133.189 6 136.218C6 136.218 291 92.2471 367.5 99.9324C369.881 109.716 379.764 130.166 387.8 136.218C395.836 142.269 405.717 145.342 415.76 144.914C425.802 144.485 435.385 140.581 442.875 133.868C450.365 127.154 455.299 118.046 456.836 108.095C458.373 98.1436 456.418 87.9656 451.304 79.2948C446.19 70.624 438.234 63.9969 428.792 60.5427C424.462 58.9591 421.838 50.0756 419.352 41.2394C415.655 28.1032 410.143 32.0524 412.352 45.5196L416.002 67.7786C417.212 75.1547 422.287 79.8186 428.633 83.7521C430.259 84.7604 431.797 86.0121 433.017 87.5853C435.735 92.1947 437.541 99.6817 436.724 104.972C435.907 110.262 433.284 115.104 429.303 118.673C425.321 122.242 420.227 124.317 414.888 124.545C409.55 124.772 404.297 123.139 400.025 119.922C387.273 110.32 390.919 93.3571 376.5 86.4103Z" fill="url(#paint1_linear_11_2)"/>
<path d="M606.938 117.632C606.938 121.472 604.578 123.392 599.858 123.392C595.138 123.392 592.778 121.472 592.778 117.632V85.7124L565.898 34.5924C565.418 33.5524 565.178 32.4724 565.178 31.3524C565.178 29.0324 566.538 27.3124 569.258 26.1924H569.138C570.898 25.5524 572.298 25.2324 573.338 25.2324C575.418 25.2324 577.018 26.2724 578.138 28.3524L599.978 69.3924C601.578 66.3524 603.298 63.1124 605.138 59.6724C606.978 56.1524 608.818 52.5924 610.658 48.9924C612.578 45.3924 614.458 41.8324 616.298 38.3124C618.138 34.7924 619.898 31.4724 621.578 28.3524C622.218 27.3924 622.898 26.6324 623.618 26.0724C624.418 25.5124 625.378 25.2324 626.498 25.2324C627.618 25.2324 628.938 25.5524 630.458 26.1924H630.338C633.138 27.3924 634.538 29.1524 634.538 31.4724C634.538 31.9524 634.498 32.4724 634.418 33.0324C634.338 33.5124 634.138 34.0324 633.818 34.5924C633.098 36.0324 632.178 37.7924 631.058 39.8724C630.018 41.9524 628.498 44.8724 626.498 48.6324C624.578 52.3124 622.058 57.1524 618.938 63.1524C615.818 69.0724 611.818 76.7124 606.938 86.0724V117.632Z" fill="white"/>
<path d="M539.694 28.5924C540.894 27.1524 542.254 26.4324 543.774 26.4324C545.454 26.4324 547.174 27.1924 548.934 28.7124C549.814 29.5924 550.534 30.4724 551.094 31.3524C551.734 32.2324 552.054 33.1124 552.054 33.9924C552.054 35.4324 551.534 36.6724 550.494 37.7124L534.414 56.4324L503.094 93.2724V117.392C503.094 121.232 500.694 123.152 495.894 123.152C491.174 123.152 488.814 121.232 488.814 117.392V32.3124C488.814 28.4724 491.174 26.5524 495.894 26.5524C500.694 26.5524 503.094 28.4724 503.094 32.3124V71.5524L539.694 28.5924ZM522.654 85.5924C521.854 84.4724 521.454 83.1124 521.454 81.5124C521.454 79.1124 522.454 77.1924 524.454 75.7524H524.334C525.934 74.6324 527.534 74.0724 529.134 74.0724C530.654 74.0724 531.934 74.9524 532.974 76.7124L556.134 110.552L556.014 110.432C556.734 111.552 557.094 112.752 557.094 114.032C557.094 116.112 556.054 117.952 553.974 119.552H554.094C553.214 120.112 552.374 120.552 551.574 120.872C550.774 121.192 550.054 121.352 549.414 121.352C548.774 121.352 548.094 121.112 547.374 120.632C546.734 120.152 546.094 119.552 545.454 118.832L522.654 85.5924Z" fill="white"/>
<path d="M324.313 27.1524C326.393 27.1524 328.553 27.5924 330.793 28.4724C333.033 29.3524 335.193 30.4724 337.273 31.8324H337.153C339.233 33.3524 340.833 35.3524 341.953 37.8324C343.073 40.2324 343.633 43.0324 343.633 46.2324V103.232C343.633 109.712 341.473 114.552 337.153 117.752C335.073 119.272 332.913 120.472 330.673 121.352C328.513 122.152 326.393 122.552 324.313 122.552H298.153C296.073 122.552 293.913 122.152 291.673 121.352C289.513 120.472 287.393 119.272 285.313 117.752C283.233 116.152 281.633 114.192 280.513 111.872C279.393 109.472 278.833 106.592 278.833 103.232V46.2324C278.833 43.0324 279.393 40.2324 280.513 37.8324C281.633 35.3524 283.233 33.3524 285.313 31.8324H285.193C287.273 30.4724 289.433 29.3524 291.673 28.4724C293.913 27.5924 296.073 27.1524 298.153 27.1524H324.313ZM321.313 110.432C324.273 110.432 326.353 109.592 327.553 107.912C328.753 106.232 329.353 104.352 329.353 102.272V47.3124C329.353 45.3124 328.753 43.4724 327.553 41.7924C326.353 40.1124 324.273 39.2724 321.313 39.2724H301.153C298.193 39.2724 296.113 40.1124 294.913 41.7924C293.713 43.4724 293.113 45.3124 293.113 47.3124V102.272C293.113 104.352 293.713 106.232 294.913 107.912C296.113 109.592 298.193 110.432 301.153 110.432H321.313Z" fill="white"/>
<path d="M234.544 117.632C234.544 121.472 232.184 123.392 227.464 123.392C222.744 123.392 220.384 121.472 220.384 117.632V85.7124L193.504 34.5924C193.024 33.5524 192.784 32.4724 192.784 31.3524C192.784 29.0324 194.144 27.3124 196.864 26.1924H196.744C198.504 25.5524 199.904 25.2324 200.944 25.2324C203.024 25.2324 204.624 26.2724 205.744 28.3524L227.584 69.3924C229.184 66.3524 230.904 63.1124 232.744 59.6724C234.584 56.1524 236.424 52.5924 238.264 48.9924C240.184 45.3924 242.064 41.8324 243.904 38.3124C245.744 34.7924 247.504 31.4724 249.184 28.3524C249.824 27.3924 250.504 26.6324 251.224 26.0724C252.024 25.5124 252.984 25.2324 254.104 25.2324C255.224 25.2324 256.544 25.5524 258.064 26.1924H257.944C260.744 27.3924 262.144 29.1524 262.144 31.4724C262.144 31.9524 262.104 32.4724 262.024 33.0324C261.944 33.5124 261.744 34.0324 261.424 34.5924C260.704 36.0324 259.784 37.7924 258.664 39.8724C257.624 41.9524 256.104 44.8724 254.104 48.6324C252.184 52.3124 249.664 57.1524 246.544 63.1524C243.424 69.0724 239.424 76.7124 234.544 86.0724V117.632Z" fill="white"/>
<path d="M143.999 38.9124L117.719 119.552V119.432C117.239 120.632 116.559 121.632 115.679 122.432C114.879 123.152 113.879 123.512 112.679 123.512C112.039 123.512 111.399 123.432 110.759 123.272C110.199 123.192 109.599 123.072 108.959 122.912H109.079C104.519 121.472 102.839 118.912 104.039 115.232L131.399 32.0724C131.799 30.7924 132.479 29.7124 133.439 28.8324C134.479 27.9524 135.679 27.4324 137.039 27.2724C138.399 27.0324 139.719 26.8724 140.999 26.7924C142.279 26.6324 143.279 26.5524 143.999 26.5524C144.719 26.5524 145.719 26.6324 146.999 26.7924C148.279 26.8724 149.599 26.9924 150.959 27.1524C152.079 27.3124 153.159 27.9124 154.199 28.9524C155.319 29.9924 156.159 31.0324 156.719 32.0724C161.199 45.8324 165.719 59.7124 170.279 73.7124C174.919 87.6324 179.479 101.472 183.959 115.232C185.079 118.912 183.399 121.472 178.919 122.912C178.279 123.072 177.679 123.192 177.119 123.272C176.639 123.432 176.079 123.512 175.439 123.512C174.319 123.512 173.279 123.152 172.319 122.432C171.439 121.632 170.799 120.632 170.399 119.432V119.552L143.999 38.9124ZM152.999 93.6324C152.999 96.1924 152.079 98.3924 150.239 100.232C148.479 101.992 146.319 102.872 143.759 102.872C141.199 102.872 139.039 101.992 137.279 100.232C135.519 98.3924 134.639 96.1924 134.639 93.6324C134.639 91.0724 135.519 88.9124 137.279 87.1524C139.039 85.3124 141.199 84.3924 143.759 84.3924C146.319 84.3924 148.479 85.3124 150.239 87.1524C152.079 88.9124 152.999 91.0724 152.999 93.6324Z" fill="white"/>
<path d="M53.6398 87.1524C52.2798 87.1524 51.1998 86.6324 50.3998 85.5924C49.6798 84.4724 49.3198 82.9924 49.3198 81.1524C49.3198 77.0724 50.9998 75.0324 54.3598 75.0324H67.0798C70.0398 75.0324 72.1198 74.1924 73.3198 72.5124C74.5998 70.8324 75.2398 68.9924 75.2398 66.9924V47.3124C75.2398 45.3124 74.5998 43.4724 73.3198 41.7924C72.1198 40.1124 70.0398 39.2724 67.0798 39.2724H41.8798V117.632C41.8798 121.472 39.4798 123.392 34.6798 123.392C30.0398 123.392 27.7198 121.472 27.7198 117.632V34.3524C27.7198 31.4724 28.4398 29.5524 29.8798 28.5924C31.3198 27.6324 33.0798 27.1524 35.1598 27.1524H70.1998C72.1998 27.1524 74.3198 27.5924 76.5598 28.4724C78.7998 29.3524 80.9598 30.4724 83.0398 31.8324H82.9198C84.9998 33.3524 86.5998 35.3524 87.7198 37.8324C88.8398 40.2324 89.3998 43.0324 89.3998 46.2324V67.9524C89.3998 74.4324 87.2398 79.2724 82.9198 82.4724C80.8398 83.9924 78.7198 85.1524 76.5598 85.9524C74.3998 86.7524 72.2798 87.1524 70.1998 87.1524H53.6398Z" fill="white"/>
</g>
<defs>
<filter id="filter0_d_11_2" x="0" y="0" width="688.5" height="154.953" filterUnits="userSpaceOnUse" color-interpolation-filters="sRGB">
<feFlood flood-opacity="0" result="BackgroundImageFix"/>
<feColorMatrix in="SourceAlpha" type="matrix" values="0 0 0 0 0 0 0 0 0 0 0 0 0 0 0 0 0 0 127 0" result="hardAlpha"/>
<feOffset dy="4"/>
<feGaussianBlur stdDeviation="3"/>
<feComposite in2="hardAlpha" operator="out"/>
<feColorMatrix type="matrix" values="0 0 0 0 0 0 0 0 0 0 0 0 0 0 0 0 0 0 1 0"/>
<feBlend mode="normal" in2="BackgroundImageFix" result="effect1_dropShadow_11_2"/>
<feBlend mode="normal" in="SourceGraphic" in2="effect1_dropShadow_11_2" result="shape"/>
</filter>
<linearGradient id="paint0_linear_11_2" x1="632.136" y1="14.8023" x2="56.7601" y2="114.442" gradientUnits="userSpaceOnUse">
<stop offset="0.256283" stop-color="#FF3939"/>
<stop offset="1" stop-color="#EBFF9A"/>
</linearGradient>
<linearGradient id="paint1_linear_11_2" x1="632.136" y1="14.8023" x2="56.7601" y2="114.442" gradientUnits="userSpaceOnUse">
<stop offset="0.256283" stop-color="#FF3939"/>
<stop offset="1" stop-color="#EBFF9A"/>
</linearGradient>
</defs>
</svg>
